<svg xmlns="http://www.w3.org/2000/svg" width="840" height="640" viewBox="0 0 840 640" role="img" aria-labelledby="title desc">
  <title id="title">Collaboration Visual</title>
  <desc id="desc">Abstract collaboration illustration with geometric layers.</desc>
  <defs>
    <linearGradient id="bg" x1="0" y1="0" x2="1" y2="1">
      <stop offset="0" stop-color="#173148"/>
      <stop offset="1" stop-color="#0f5a7b"/>
    </linearGradient>
    <linearGradient id="panel" x1="0" y1="0" x2="1" y2="1">
      <stop offset="0" stop-color="#f5fbff"/>
      <stop offset="1" stop-color="#dfefff"/>
    </linearGradient>
    <linearGradient id="accent" x1="0" y1="0" x2="1" y2="0">
      <stop offset="0" stop-color="#ff7a22"/>
      <stop offset="1" stop-color="#ff3b1f"/>
    </linearGradient>
  </defs>

  <rect width="840" height="640" rx="36" fill="url(#bg)"/>
  <circle cx="166" cy="126" r="72" fill="rgba(196,235,255,0.24)"/>
  <circle cx="734" cy="492" r="90" fill="rgba(139,219,255,0.2)"/>

  <rect x="142" y="144" width="556" height="356" rx="40" fill="url(#panel)"/>

  <g transform="translate(178 190)">
    <rect x="0" y="88" width="220" height="56" rx="18" fill="#f4f7ff" stroke="#d4dff1"/>
    <rect x="338" y="88" width="220" height="56" rx="18" fill="#f4f7ff" stroke="#d4dff1"/>

    <path d="M76 175 C116 146 172 140 224 158 L274 176 C290 181 294 201 282 214 L266 231 C257 241 242 244 230 238 L156 203 C143 197 128 199 116 208 L80 235 C68 244 50 244 38 234 L26 223 C16 214 15 198 25 188 Z" fill="#ffffff" stroke="#cfd9eb" stroke-width="3"/>

    <path d="M480 175 C440 146 384 140 332 158 L282 176 C266 181 262 201 274 214 L290 231 C299 241 314 244 326 238 L400 203 C413 197 428 199 440 208 L476 235 C488 244 506 244 518 234 L530 223 C540 214 541 198 531 188 Z" fill="#ffffff" stroke="#cfd9eb" stroke-width="3"/>

    <circle cx="280" cy="202" r="46" fill="#ffffff" stroke="#d3dff0" stroke-width="3"/>
    <path d="M244 204 H316" stroke="url(#accent)" stroke-width="14" stroke-linecap="round"/>
    <circle cx="280" cy="202" r="20" fill="none" stroke="url(#accent)" stroke-width="10"/>
  </g>

  <rect x="30" y="30" width="780" height="580" rx="28" fill="none" stroke="rgba(197,233,255,0.35)" stroke-width="2"/>
</svg>
